<?xml version="1.0" encoding="utf-8"?>
<!-- Generator: Adobe Illustrator 18.1.1, SVG Export Plug-In . SVG Version: 6.00 Build 0)  -->
<svg version="1.1" id="Layer_1" xmlns="http://www.w3.org/2000/svg" xmlns:xlink="http://www.w3.org/1999/xlink" x="0px" y="0px"
	 viewBox="0 0 300 600" enable-background="new 0 0 300 600" xml:space="preserve">
<g id="Meet_Fitbit_Surge._5_">
	<path fill="#FFFFFF" d="M136.4,243v-1.4l0,0c-0.7,1.3-2.3,1.8-3.7,1.8c-3.9,0-6.4-3-6.4-6.8c0-3.7,2.6-6.8,6.4-6.8
		c1.4,0,3,0.5,3.7,1.8l0,0v-1.4h3.8V243H136.4z M133.2,233.4c-1.9,0-3.2,1.5-3.2,3.3s1.4,3.2,3.2,3.2c1.9,0,3.2-1.4,3.2-3.3
		C136.4,234.7,135.1,233.4,133.2,233.4z"/>
	<path fill="#FFFFFF" d="M150.2,243v-7c0-1.4-0.3-2.6-2-2.6c-1.8,0-2.2,1.1-2.2,2.7v6.9h-3.8v-12.8h3.6v1.4l0,0
		c0.8-1.3,1.9-1.8,3.5-1.8c1.1,0,2.4,0.4,3.3,1.1c1.2,1,1.5,2.6,1.5,4.1v8L150.2,243L150.2,243z"/>
	<path fill="#FFFFFF" d="M165.5,243v-1.4l0,0c-0.8,1.4-2.3,1.8-3.8,1.8c-3.9,0-6.4-3.1-6.4-6.8s2.5-6.8,6.3-6.8
		c1.5,0,2.7,0.5,3.7,1.5V226h3.8v17H165.5z M162.3,233.4c-1.8,0-3.2,1.3-3.2,3.2s1.3,3.3,3.2,3.3s3.3-1.4,3.3-3.3
		C165.5,234.7,164.2,233.4,162.3,233.4z"/>
	<path fill="#FFFFFF" d="M90.3,253.8v2.9h4.9v3.8h-4.9v6.5h-4.2v-17h9.3v3.8H90.3z"/>
	<path fill="#FFFFFF" d="M96.8,252.9V250h3.8v2.9H96.8z M96.8,267v-12.8h3.8V267H96.8z"/>
	<path fill="#FFFFFF" d="M107.2,257.1v9.9h-3.8v-9.9h-1.9v-2.9h1.9V250h3.8v4.3h1.8v2.9h-1.8V257.1z"/>
	<path fill="#FFFFFF" d="M117.2,267.4c-1.3,0-3-0.6-3.7-1.8l0,0v1.4h-3.7v-17h3.8v5.3c1-1.1,2.3-1.4,3.7-1.4c0.9,0,1.8,0.2,2.7,0.6
		c2.5,1.1,3.6,3.5,3.6,6.1C123.6,264.4,121.2,267.4,117.2,267.4z M116.7,257.4c-1.8,0-3.2,1.4-3.2,3.2c0,1.8,1.2,3.3,3.1,3.3
		c1.8,0,3.2-1.4,3.2-3.3C119.8,258.9,118.5,257.4,116.7,257.4z"/>
	<path fill="#FFFFFF" d="M124.9,252.9V250h3.8v2.9H124.9z M124.9,267v-12.8h3.8V267H124.9z"/>
	<path fill="#FFFFFF" d="M135.3,257.1v9.9h-3.8v-9.9h-1.9v-2.9h1.9V250h3.8v4.3h1.8v2.9h-1.8V257.1z"/>
	<path fill="#FFFFFF" d="M149.6,267.3c-3.4,0-6.1-1.8-6.1-5.4v-0.6h4.3c0,1.1,0.5,2.3,1.8,2.3c0.9,0,1.7-0.7,1.7-1.6
		c0-1.1-0.9-1.5-1.8-1.9c-0.5-0.2-1-0.4-1.5-0.6c-2.2-0.9-4.2-2.2-4.2-4.9c0-3.2,3.1-5,6-5c1.7,0,3.5,0.6,4.6,1.9
		c0.9,1.1,1.1,2,1.1,3.4h-4.3c-0.1-0.9-0.5-1.7-1.6-1.7c-0.8,0-1.5,0.5-1.5,1.3c0,0.3,0,0.5,0.2,0.7c0.4,0.7,2.6,1.6,3.4,1.9
		c2.3,1,4,2.2,4,4.9C155.5,265.7,152.9,267.3,149.6,267.3z"/>
	<path fill="#FFFFFF" d="M164.8,267v-1.4l0,0c-0.7,1.4-1.9,1.8-3.3,1.8s-2.8-0.5-3.7-1.6c-1-1.3-1.1-2.3-1.1-3.9v-7.6h3.8v7.1
		c0,1.4,0.3,2.6,2,2.6c1.6,0,2.2-1.1,2.2-2.6v-7h3.8V267H164.8z"/>
	<path fill="#FFFFFF" d="M174.1,260v7h-3.8v-12.8h3.6v1.4l0,0c0.7-1.3,1.7-1.8,3.2-1.8v3.8C175.4,257.7,174.1,258,174.1,260z"/>
	<path fill="#FFFFFF" d="M190.1,269.7c-1.3,2.1-4.1,3-6.5,3c-2.2,0-4.3-0.7-5.6-2.5c-0.4-0.6-0.7-1.3-0.8-2h4.4
		c0.4,0.9,1.3,1.3,2.2,1.3c2.1,0,3.1-1.4,3.1-3.5v-0.4l0,0c-0.7,1.2-2.1,1.8-3.5,1.8c-3.8,0-6.4-3-6.4-6.7s2.6-6.9,6.4-6.9
		c1.3,0,2.8,0.4,3.5,1.6l0,0v-1.2h3.8v11.2C190.8,266.9,190.8,268.4,190.1,269.7z M183.9,257.4c-1.8,0-3.1,1.4-3.1,3.2
		c0,1.8,1.2,3.3,3.1,3.3c1.8,0,3.1-1.3,3.1-3.2C187,258.8,185.8,257.4,183.9,257.4z"/>
	<path fill="#FFFFFF" d="M205.3,261.8h-9.6c0.2,1.5,1.5,2.4,3,2.4c1,0,1.7-0.4,2.3-1.2h3.9c-1.1,2.6-3.4,4.4-6.2,4.4
		c-3.7,0-6.8-3-6.8-6.8c0-3.7,2.9-6.9,6.7-6.9c3.9,0,6.7,3.1,6.7,7C205.4,261.1,205.4,261.4,205.3,261.8z M198.7,257
		c-1.4,0-2.6,0.8-2.9,2.2h5.8C201.3,257.8,200.1,257,198.7,257z"/>
	<path fill="#FFFFFF" d="M207,267v-3.9h4v3.9H207z"/>
</g>
<g id="Meet_Fitbit_Surge._3_">
	<path fill="#FFFFFF" d="M208.8,251.4v4.6h-1.5v-4.6h-1.2v-1.3h3.8v1.3H208.8z"/>
	<path fill="#FFFFFF" d="M215.2,256v-4.4l0,0L214,256h-1l-1.3-4.4l0,0v4.4h-1.4v-5.9h1.9l1.2,3.9l0,0l1.2-3.9h2v5.9H215.2z"/>
</g>
<g>
</g>
<g>
</g>
<g>
</g>
<g>
</g>
<g>
</g>
<g>
</g>
<g>
</g>
<g>
</g>
<g>
</g>
<g>
</g>
<g>
</g>
<g>
</g>
<g>
</g>
<g>
</g>
<g>
</g>
</svg>
