<?xml version="1.0" encoding="utf-8"?>
<!-- Generator: Adobe Illustrator 18.1.1, SVG Export Plug-In . SVG Version: 6.00 Build 0)  -->
<svg version="1.1" id="Layer_1" xmlns="http://www.w3.org/2000/svg" xmlns:xlink="http://www.w3.org/1999/xlink" x="0px" y="0px"
	 viewBox="0 0 300 600" enable-background="new 0 0 300 600" xml:space="preserve">
<g>
	<g>
		<defs>
			<rect id="SVGID_1_" x="82.8" y="448.6" width="134.5" height="28.7"/>
		</defs>
		<clipPath id="SVGID_2_">
			<use xlink:href="#SVGID_1_"  overflow="visible"/>
		</clipPath>
		<path clip-path="url(#SVGID_2_)" fill="#FFFFFF" d="M203.7,457.3c-0.7,0-1.2,0.5-1.2,1.2v11.8c0,0.7,0.5,1.2,1.2,1.2
			s1.2-0.5,1.2-1.2v-11.8C204.9,457.8,204.4,457.3,203.7,457.3"/>
	</g>
	<g>
		<defs>
			<rect id="SVGID_3_" x="82.8" y="448.6" width="134.5" height="28.7"/>
		</defs>
		<clipPath id="SVGID_4_">
			<use xlink:href="#SVGID_3_"  overflow="visible"/>
		</clipPath>
		<path clip-path="url(#SVGID_4_)" fill="#FFFFFF" d="M199.7,452.6h0.5c0.6,0,1-0.4,1-1s-0.4-1-1-1h-0.6c-3.4,0-5.1,1.8-5.1,5.4v1.6
			h-1.9c-0.6,0-1,0.4-1,1s0.4,1,1,1h1.9v10.7c0,0.7,0.5,1.2,1.2,1.2c0.7,0,1.2-0.5,1.2-1.2v-10.7h3.2c0.6,0,1-0.5,1-1
			c0-0.6-0.5-1-1-1h-3.2V456C196.8,453.1,198,452.6,199.7,452.6"/>
	</g>
	<g>
		<defs>
			<rect id="SVGID_5_" x="82.8" y="448.6" width="134.5" height="28.7"/>
		</defs>
		<clipPath id="SVGID_6_">
			<use xlink:href="#SVGID_5_"  overflow="visible"/>
		</clipPath>
		<path clip-path="url(#SVGID_6_)" fill="#FFFFFF" d="M203.7,452.7c-0.8,0-1.4,0.6-1.4,1.4s0.6,1.4,1.4,1.4c0.8,0,1.4-0.6,1.4-1.4
			C205.1,453.3,204.5,452.7,203.7,452.7"/>
	</g>
	<g>
		<defs>
			<rect id="SVGID_7_" x="82.8" y="448.6" width="134.5" height="28.7"/>
		</defs>
		<clipPath id="SVGID_8_">
			<use xlink:href="#SVGID_7_"  overflow="visible"/>
		</clipPath>
		<path clip-path="url(#SVGID_8_)" fill="#FFFFFF" d="M215.2,469.7h-0.5c-1.7,0-2.9-0.6-2.9-3.3v-6.7h3.2c0.6,0,1-0.5,1-1
			c0-0.6-0.5-1-1-1h-3.2v-5.6c0-0.7-0.5-1.2-1.2-1.2s-1.2,0.5-1.2,1.2v5.6h-1.9c-0.6,0-1,0.4-1,1s0.4,1,1,1h1.9v6.7
			c0,3.6,1.7,5.4,5.1,5.4h0.6c0.6,0,1-0.4,1-1C216.2,470.1,215.8,469.7,215.2,469.7"/>
	</g>
	<g>
		<defs>
			<rect id="SVGID_9_" x="82.8" y="448.6" width="134.5" height="28.7"/>
		</defs>
		<clipPath id="SVGID_10_">
			<use xlink:href="#SVGID_9_"  overflow="visible"/>
		</clipPath>
		<path clip-path="url(#SVGID_10_)" fill="#FFFFFF" d="M91.9,459.4v-3.6h-2c0-1.7,0.3-2.1,2-2.1v-3.5h-0.7c-3.3,0-6,1-6,4.8v0.8
			h-1.7v3.6h1.7v12.1h4.7v-12.1L91.9,459.4L91.9,459.4z M97.9,450.7h-4.7v3.6h4.7C97.9,454.3,97.9,450.7,97.9,450.7z M97.9,455.9
			h-4.7v15.6h4.7C97.9,471.5,97.9,455.9,97.9,455.9z M113.9,471.5v-9.8c0-1.8-0.3-3.8-1.8-5c-1-0.8-2.7-1.4-4-1.4
			c-1.9,0-3.3,0.6-4.3,2.2h-0.1v-1.7h-4.4v15.6h4.7V463c0-1.9,0.5-3.3,2.7-3.3c2.1,0,2.5,1.5,2.5,3.2v8.5L113.9,471.5L113.9,471.5z
			 M132.2,471.5v-20.9h-4.7v6.5c-1.3-1.3-2.8-1.9-4.6-1.9c-4.7,0-7.8,3.8-7.8,8.3c0,4.6,3,8.4,7.8,8.4c1.8,0,3.7-0.5,4.7-2.2h0.1
			v1.7h4.5V471.5z M127.7,463.6c0,2.3-1.7,4-4,4c-2.3,0-3.9-1.7-3.9-4s1.7-3.9,4-3.9C126,459.7,127.7,461.4,127.7,463.6
			 M149.1,455.9h-5l-3,9.1H141l-3.1-9.1h-5l5.8,14.9l-2.5,6h5L149.1,455.9z M164.9,463.7c0-4.8-3.6-8.3-8.4-8.3s-8.4,3.5-8.4,8.3
			s3.6,8.3,8.4,8.3C161.2,472,164.9,468.5,164.9,463.7 M160.2,463.7c0,2.1-1.6,3.9-3.7,3.9c-2.2,0-3.7-1.8-3.7-3.9s1.6-3.9,3.7-3.9
			C158.6,459.7,160.2,461.6,160.2,463.7 M180.5,471.5v-15.6h-4.7v8.6c0,1.8-0.7,3.2-2.7,3.2c-2.1,0-2.5-1.4-2.5-3.1v-8.7h-4.7v9.4
			c0,1.9,0.1,3.2,1.4,4.8c1.1,1.4,2.9,2,4.6,2s3.2-0.5,4.1-2.2h0.1v1.7L180.5,471.5L180.5,471.5z M190.4,460v-4.7
			c-1.8,0-3.1,0.6-3.9,2.2h-0.1v-1.7H182v15.6h4.7v-8.6C186.7,460.5,188.3,460.1,190.4,460"/>
	</g>
</g>
<g>
</g>
<g>
</g>
<g>
</g>
<g>
</g>
<g>
</g>
<g>
</g>
<g>
</g>
<g>
</g>
<g>
</g>
<g>
</g>
<g>
</g>
<g>
</g>
<g>
</g>
<g>
</g>
<g>
</g>
</svg>
