<?xml version="1.0" encoding="utf-8"?>
<!-- Generator: Adobe Illustrator 18.1.1, SVG Export Plug-In . SVG Version: 6.00 Build 0)  -->
<svg version="1.1" id="Layer_1" xmlns="http://www.w3.org/2000/svg" xmlns:xlink="http://www.w3.org/1999/xlink" x="0px" y="0px"
	 viewBox="0 0 300 600" enable-background="new 0 0 300 600" xml:space="preserve">
<g id="Meet_Fitbit_Surge._2_">
	<path fill="#FFFFFF" d="M109.4,458l-6.5-10.3l0,0L103,458h-4.2v-17h3.7l6.6,10.7l0,0L109,441h4.2v17H109.4z"/>
	<path fill="#FFFFFF" d="M121.5,458.4c-3.9,0-6.9-2.9-6.9-6.8s3-6.8,6.9-6.8s6.9,2.9,6.9,6.8S125.4,458.4,121.5,458.4z M121.5,448.4
		c-1.8,0-3.1,1.5-3.1,3.2s1.3,3.2,3.1,3.2s3.1-1.5,3.1-3.2S123.3,448.4,121.5,448.4z"/>
	<path fill="#FFFFFF" d="M142.2,458.4c-3.8,0-6.8-3-6.8-6.8s2.9-6.8,6.7-6.8c3.3,0,6.1,2.1,6.8,5.4H145c-0.6-1.2-1.5-1.8-2.9-1.8
		c-1.8,0-2.9,1.5-2.9,3.2c0,1.8,1.2,3.2,3,3.2c1.3,0,2.2-0.6,2.8-1.7h3.9C148.1,456.3,145.4,458.4,142.2,458.4z"/>
	<path fill="#FFFFFF" d="M157.8,458v-6.9c0-1.4-0.4-2.7-2-2.7s-2.1,1.1-2.1,2.5v7.1h-3.8v-17h3.8v5.4l0,0c0.7-1.2,2-1.6,3.3-1.6
		c1.2,0,2.6,0.4,3.5,1.4c1.2,1.4,1.2,2.9,1.2,4.7v7.1H157.8z"/>
	<path fill="#FFFFFF" d="M176.1,452.8h-9.6c0.2,1.5,1.5,2.4,3,2.4c1,0,1.7-0.4,2.3-1.2h3.9c-1.1,2.6-3.4,4.4-6.2,4.4
		c-3.7,0-6.8-3-6.8-6.8c0-3.7,2.9-6.9,6.7-6.9c3.9,0,6.7,3.1,6.7,7C176.2,452.1,176.1,452.4,176.1,452.8z M169.5,448
		c-1.4,0-2.6,0.8-2.9,2.2h5.8C172.1,448.8,170.8,448,169.5,448z"/>
	<path fill="#FFFFFF" d="M181.8,458.4c-2.7,0-4.9-1.4-5.2-4.2h3.8c0.1,0.8,0.7,1.2,1.4,1.2c0.6,0,1.3-0.3,1.3-1c0-0.9-1-1.2-1.7-1.5
		c-0.6-0.2-1.1-0.4-1.7-0.6c-1.5-0.6-3-1.5-3-3.3c0-2.7,2.5-4.2,4.9-4.2c2.6,0,4.6,1.3,4.9,4h-3.7c0-0.7-0.5-1-1.2-1
		c-0.5,0-1.1,0.3-1.1,0.9c0,2,6.4,0.9,6.4,5.4C187,457,184.4,458.4,181.8,458.4z"/>
	<path fill="#FFFFFF" d="M192.6,448.1v9.9h-3.8v-9.9h-1.9v-2.9h1.9V441h3.8v4.3h1.8v2.9L192.6,448.1L192.6,448.1z"/>
	<path fill="#FFFFFF" d="M118.5,481.4c-2.7,0-4.9-1.4-5.2-4.2h3.8c0.1,0.8,0.7,1.2,1.4,1.2c0.6,0,1.3-0.3,1.3-1c0-0.9-1-1.2-1.7-1.5
		c-0.6-0.2-1.1-0.4-1.7-0.6c-1.5-0.6-3-1.5-3-3.3c0-2.7,2.5-4.2,4.9-4.2c2.6,0,4.6,1.3,4.9,4h-3.7c0-0.7-0.5-1-1.2-1
		c-0.5,0-1.1,0.3-1.1,0.9c0,2,6.4,0.9,6.4,5.4C123.7,480,121.1,481.4,118.5,481.4z"/>
	<path fill="#FFFFFF" d="M129.3,471.1v9.9h-3.8v-9.9h-1.9v-2.9h1.9V464h3.8v4.3h1.8v2.9L129.3,471.1L129.3,471.1z"/>
	<path fill="#FFFFFF" d="M135.7,474v7h-3.8v-12.8h3.6v1.4l0,0c0.7-1.3,1.7-1.8,3.2-1.8v3.8C137.1,471.7,135.7,472,135.7,474z"/>
	<path fill="#FFFFFF" d="M148.8,481v-1.4l0,0c-0.7,1.3-2.3,1.8-3.7,1.8c-3.9,0-6.4-3-6.4-6.8c0-3.7,2.6-6.8,6.4-6.8
		c1.4,0,3,0.5,3.7,1.8l0,0v-1.4h3.8V481H148.8z M145.6,471.4c-1.9,0-3.2,1.5-3.2,3.3s1.4,3.2,3.2,3.2c1.9,0,3.2-1.4,3.2-3.3
		C148.8,472.7,147.5,471.4,145.6,471.4z"/>
	<path fill="#FFFFFF" d="M162.7,481.4c-1.5,0-2.8-0.5-3.8-1.6v5.4h-3.8v-17h3.6v1.4l0,0l0,0c1-1.2,2.4-1.8,4-1.8
		c4,0,6.2,3.2,6.2,6.9C168.9,478.3,166.4,481.4,162.7,481.4z M161.9,471.4c-1.8,0-3.2,1.4-3.2,3.3c0,1.8,1.4,3.2,3.2,3.2
		c1.8,0,3.2-1.4,3.2-3.2C165.1,472.8,163.7,471.4,161.9,471.4z"/>
	<path fill="#FFFFFF" d="M174.6,481.4c-2.7,0-4.9-1.4-5.2-4.2h3.8c0.1,0.8,0.7,1.2,1.4,1.2c0.6,0,1.3-0.3,1.3-1c0-0.9-1-1.2-1.7-1.5
		c-0.6-0.2-1.1-0.4-1.7-0.6c-1.5-0.6-3-1.5-3-3.3c0-2.7,2.5-4.2,4.9-4.2c2.6,0,4.6,1.3,4.9,4h-3.7c0-0.7-0.5-1-1.2-1
		c-0.5,0-1.1,0.3-1.1,0.9c0,2,6.4,0.9,6.4,5.4C179.8,480,177.2,481.4,174.6,481.4z"/>
	<path fill="#FFFFFF" d="M181.1,481v-3.9h4v3.9H181.1z"/>
</g>
<g>
</g>
<g>
</g>
<g>
</g>
<g>
</g>
<g>
</g>
<g>
</g>
<g>
</g>
<g>
</g>
<g>
</g>
<g>
</g>
<g>
</g>
<g>
</g>
<g>
</g>
<g>
</g>
<g>
</g>
</svg>
