<?xml version="1.0" encoding="utf-8"?>
<!-- Generator: Adobe Illustrator 18.1.1, SVG Export Plug-In . SVG Version: 6.00 Build 0)  -->
<svg version="1.1" id="Layer_1" xmlns="http://www.w3.org/2000/svg" xmlns:xlink="http://www.w3.org/1999/xlink" x="0px" y="0px"
	 viewBox="0 0 300 600" enable-background="new 0 0 300 600" xml:space="preserve">
<g id="Meet_Fitbit_Surge.">
	<path fill="#FFFFFF" d="M105.4,33l0.1-12.7l0,0L101.8,33h-2.9l-3.6-12.8l0,0L95.4,33h-4V16H97l3.4,11.2l0,0l3.3-11.2h5.6v17H105.4z
		"/>
	<path fill="#FFFFFF" d="M124.1,27.8h-9.6c0.2,1.5,1.5,2.4,3,2.4c1,0,1.7-0.4,2.3-1.2h3.9c-1.1,2.6-3.4,4.4-6.2,4.4
		c-3.7,0-6.8-3-6.8-6.8c0-3.7,2.9-6.9,6.7-6.9c3.9,0,6.7,3.1,6.7,7C124.2,27.1,124.1,27.4,124.1,27.8z M117.5,23
		c-1.4,0-2.6,0.8-2.9,2.2h5.8C120.1,23.8,118.8,23,117.5,23z"/>
	<path fill="#FFFFFF" d="M138.1,27.8h-9.6c0.2,1.5,1.5,2.4,3,2.4c1,0,1.7-0.4,2.3-1.2h3.9c-1.1,2.6-3.4,4.4-6.2,4.4
		c-3.7,0-6.8-3-6.8-6.8c0-3.7,2.9-6.9,6.7-6.9c3.9,0,6.7,3.1,6.7,7C138.2,27.1,138.2,27.4,138.1,27.8z M131.5,23
		c-1.4,0-2.6,0.8-2.9,2.2h5.8C134.1,23.8,132.8,23,131.5,23z"/>
	<path fill="#FFFFFF" d="M144,23.1V33h-3.8v-9.9h-1.9v-2.9h1.9V16h3.8v4.3h1.8v2.9L144,23.1L144,23.1z"/>
	<path fill="#FFFFFF" d="M157.2,19.8v2.9h4.9v3.8h-4.9V33H153V16h9.3v3.8H157.2z"/>
	<path fill="#FFFFFF" d="M163.7,18.9V16h3.8v2.9H163.7z M163.7,33V20.2h3.8V33H163.7z"/>
	<path fill="#FFFFFF" d="M174.1,23.1V33h-3.8v-9.9h-1.9v-2.9h1.9V16h3.8v4.3h1.8v2.9L174.1,23.1L174.1,23.1z"/>
	<path fill="#FFFFFF" d="M184.1,33.4c-1.3,0-3-0.6-3.7-1.8l0,0V33h-3.7V16h3.8v5.3c1-1.1,2.3-1.4,3.7-1.4c0.9,0,1.8,0.2,2.7,0.6
		c2.5,1.1,3.6,3.5,3.6,6.1C190.6,30.4,188.1,33.4,184.1,33.4z M183.6,23.4c-1.8,0-3.2,1.4-3.2,3.2c0,1.8,1.2,3.3,3.1,3.3
		c1.8,0,3.2-1.4,3.2-3.3C186.8,24.9,185.4,23.4,183.6,23.4z"/>
	<path fill="#FFFFFF" d="M191.9,18.9V16h3.8v2.9H191.9z M191.9,33V20.2h3.8V33H191.9z"/>
	<path fill="#FFFFFF" d="M202.3,23.1V33h-3.8v-9.9h-1.9v-2.9h1.9V16h3.8v4.3h1.8v2.9L202.3,23.1L202.3,23.1z"/>
	<path fill="#FFFFFF" d="M93.6,57.3c-4.9,0-9-3.9-9-8.9s4-8.8,8.9-8.8c3.1,0,5.8,1.4,7.5,4c0.6,0.8,1,1.8,1.1,2.8h-4.6
		c-0.7-1.7-2.2-3-4.1-3c-2.8,0-4.6,2.3-4.6,5s1.8,5.1,4.6,5.1c1.9,0,3.3-1.2,4.1-2.9h4.6C101.2,54.7,97.7,57.3,93.6,57.3z"/>
	<path fill="#FFFFFF" d="M111.4,57v-6.9c0-1.4-0.4-2.7-2-2.7s-2.1,1.1-2.1,2.5V57h-3.8V40h3.8v5.4l0,0c0.7-1.2,2-1.6,3.3-1.6
		c1.2,0,2.6,0.4,3.5,1.4c1.2,1.4,1.2,2.9,1.2,4.7V57H111.4z"/>
	<path fill="#FFFFFF" d="M126.7,57v-1.4l0,0c-0.7,1.3-2.3,1.8-3.7,1.8c-3.9,0-6.4-3-6.4-6.8c0-3.7,2.6-6.8,6.4-6.8
		c1.4,0,3,0.5,3.7,1.8l0,0v-1.4h3.8V57H126.7z M123.5,47.4c-1.9,0-3.2,1.5-3.2,3.3s1.4,3.2,3.2,3.2c1.9,0,3.2-1.4,3.2-3.3
		C126.7,48.7,125.4,47.4,123.5,47.4z"/>
	<path fill="#FFFFFF" d="M136.3,50v7h-3.8V44.2h3.5v1.4l0,0c0.7-1.3,1.7-1.8,3.2-1.8v3.8C137.6,47.7,136.3,48,136.3,50z"/>
	<path fill="#FFFFFF" d="M152.2,59.7c-1.3,2.1-4.1,3-6.5,3c-2.2,0-4.3-0.7-5.6-2.5c-0.4-0.6-0.7-1.3-0.8-2h4.4
		c0.4,0.9,1.3,1.3,2.2,1.3c2.1,0,3.1-1.4,3.1-3.5v-0.4l0,0c-0.7,1.2-2.1,1.8-3.5,1.8c-3.8,0-6.4-3-6.4-6.7s2.6-6.9,6.4-6.9
		c1.3,0,2.8,0.4,3.5,1.6l0,0v-1.2h4v11.2C153,56.9,153,58.4,152.2,59.7z M146.1,47.4c-1.8,0-3.1,1.4-3.1,3.2s1.2,3.3,3.1,3.3
		c1.8,0,3.1-1.3,3.1-3.2S148,47.4,146.1,47.4z"/>
	<path fill="#FFFFFF" d="M167.5,51.8h-9.6c0.2,1.5,1.5,2.4,3,2.4c1,0,1.7-0.4,2.3-1.2h3.9c-1.1,2.6-3.4,4.4-6.2,4.4
		c-3.7,0-6.8-3-6.8-6.8c0-3.7,2.9-6.9,6.7-6.9c3.9,0,6.7,3.1,6.7,7C167.6,51.1,167.6,51.4,167.5,51.8z M160.9,47
		c-1.4,0-2.6,0.8-2.9,2.2h5.8C163.5,47.8,162.3,47,160.9,47z"/>
	<path fill="#FFFFFF" d="M185.2,57v-6.8h-5.6V57h-4.3V40h4.3v6.4h5.6V40h4.3v17H185.2z"/>
	<path fill="#FFFFFF" d="M199.9,57l-3.9-5.5l0,0V57h-4.2V40h5.4c1.8,0,3.8,0,5.2,1.2c1.4,1.1,2.1,2.9,2.1,4.6c0,2.6-1.5,4.9-4.2,5.4
		l4.6,5.8H199.9z M197.5,43.8h-1.6v4.7h1.5c1.6,0,2.9-0.7,2.9-2.4C200.3,44.4,199,43.8,197.5,43.8z"/>
	<path fill="#FFFFFF" d="M206,57v-3.9h4V57H206z"/>
</g>
<g id="Meet_Fitbit_Surge._1_">
	<path fill="#FFFFFF" d="M208.8,41.4V46h-1.5v-4.6h-1.2v-1.3h3.8v1.3H208.8z"/>
	<path fill="#FFFFFF" d="M215.2,46v-4.4l0,0L214,46h-1l-1.3-4.4l0,0V46h-1.4v-5.9h1.9l1.2,3.9l0,0l1.2-3.9h2V46H215.2z"/>
</g>
<g>
</g>
<g>
</g>
<g>
</g>
<g>
</g>
<g>
</g>
<g>
</g>
<g>
</g>
<g>
</g>
<g>
</g>
<g>
</g>
<g>
</g>
<g>
</g>
<g>
</g>
<g>
</g>
<g>
</g>
</svg>
