<?xml version="1.0" encoding="utf-8"?>
<!-- Generator: Adobe Illustrator 18.1.1, SVG Export Plug-In . SVG Version: 6.00 Build 0)  -->
<svg version="1.1" id="Layer_1" xmlns="http://www.w3.org/2000/svg" xmlns:xlink="http://www.w3.org/1999/xlink" x="0px" y="0px"
	 viewBox="0 0 300 600" enable-background="new 0 0 300 600" xml:space="preserve">
<g id="Meet_Fitbit_Surge._6_">
	<path fill="#FFFFFF" d="M122.3,458v-3.4c1.9-1.2,3.7-2.4,5.2-4.1c1-1.1,2.3-2.8,2.3-4.3c0-1-0.6-1.7-1.6-1.7c-1.6,0-1.9,1.4-2,2.7
		h-4.1c0-1.4,0.2-2.7,1-3.9c1.1-1.8,3.2-2.6,5.2-2.6c2.2,0,4.4,0.9,5.4,3c0.3,0.6,0.4,1.3,0.4,2c0,3.7-3.1,6.5-5.7,8.7h5.8v3.7
		h-11.9V458z"/>
	<path fill="#FFFFFF" d="M146.5,455v3h-4.2v-3h-7.5v-3.2l7.6-10.9h4v10.6h1.9v3.4h-1.8V455z M142.6,446.3L142.6,446.3l-3.4,5.3h3.4
		V446.3z"/>
	<path fill="#FFFFFF" d="M153.8,460.3h-4.3l6.1-19.3h4.2L153.8,460.3z"/>
	<path fill="#FFFFFF" d="M167.2,458h-4.8l6.3-13.4h-6.6V441h11.1v3.3L167.2,458z"/>
	<path fill="#FFFFFF" d="M100.3,481v-6.9c0-1.4-0.4-2.7-2-2.7c-1.6,0-2.1,1.1-2.1,2.5v7.1h-3.8v-17h3.8v5.4l0,0
		c0.7-1.2,2-1.6,3.3-1.6c1.2,0,2.6,0.4,3.5,1.4c1.2,1.4,1.2,2.9,1.2,4.7v7.1H100.3z"/>
	<path fill="#FFFFFF" d="M118.6,475.8H109c0.2,1.5,1.5,2.4,3,2.4c1,0,1.7-0.4,2.3-1.2h3.9c-1.1,2.6-3.4,4.4-6.2,4.4
		c-3.7,0-6.8-3-6.8-6.8c0-3.7,2.9-6.9,6.7-6.9c3.9,0,6.7,3.1,6.7,7C118.7,475.1,118.7,475.4,118.6,475.8z M112,471
		c-1.4,0-2.6,0.8-2.9,2.2h5.8C114.6,471.8,113.4,471,112,471z"/>
	<path fill="#FFFFFF" d="M129.6,481v-1.4l0,0c-0.7,1.3-2.3,1.8-3.7,1.8c-3.9,0-6.4-3-6.4-6.8c0-3.7,2.6-6.8,6.4-6.8
		c1.4,0,3,0.5,3.7,1.8l0,0v-1.4h3.8V481H129.6z M126.3,471.4c-1.9,0-3.2,1.5-3.2,3.3s1.4,3.2,3.2,3.2c1.9,0,3.2-1.4,3.2-3.3
		C129.6,472.7,128.2,471.4,126.3,471.4z"/>
	<path fill="#FFFFFF" d="M139.1,474v7h-3.8v-12.8h3.6v1.4l0,0c0.7-1.3,1.7-1.8,3.2-1.8v3.8C140.4,471.7,139.1,472,139.1,474z"/>
	<path fill="#FFFFFF" d="M147.8,471.1v9.9H144v-9.9h-1.9v-2.9h1.9V464h3.8v4.3h1.8v2.9L147.8,471.1L147.8,471.1z"/>
	<path fill="#FFFFFF" d="M160.5,474v7h-3.8v-12.8h3.6v1.4l0,0c0.7-1.3,1.7-1.8,3.2-1.8v3.8C161.9,471.7,160.5,472,160.5,474z"/>
	<path fill="#FFFFFF" d="M173.7,481v-1.4l0,0c-0.7,1.3-2.3,1.8-3.7,1.8c-3.9,0-6.4-3-6.4-6.8c0-3.7,2.6-6.8,6.4-6.8
		c1.4,0,3,0.5,3.7,1.8l0,0v-1.4h3.8V481H173.7z M170.4,471.4c-1.9,0-3.2,1.5-3.2,3.3s1.4,3.2,3.2,3.2c1.9,0,3.2-1.4,3.2-3.3
		C173.7,472.7,172.3,471.4,170.4,471.4z"/>
	<path fill="#FFFFFF" d="M184.1,471.1v9.9h-3.8v-9.9h-1.9v-2.9h1.9V464h3.8v4.3h1.8v2.9L184.1,471.1L184.1,471.1z"/>
	<path fill="#FFFFFF" d="M199,475.8h-9.6c0.2,1.5,1.5,2.4,3,2.4c1,0,1.7-0.4,2.3-1.2h3.9c-1.1,2.6-3.4,4.4-6.2,4.4
		c-3.7,0-6.8-3-6.8-6.8c0-3.7,2.9-6.9,6.7-6.9c3.9,0,6.7,3.1,6.7,7C199.1,475.1,199.1,475.4,199,475.8z M192.4,471
		c-1.4,0-2.6,0.8-2.9,2.2h5.8C195,471.8,193.8,471,192.4,471z"/>
	<path fill="#FFFFFF" d="M200.7,481v-3.9h4v3.9H200.7z"/>
</g>
<g>
</g>
<g>
</g>
<g>
</g>
<g>
</g>
<g>
</g>
<g>
</g>
<g>
</g>
<g>
</g>
<g>
</g>
<g>
</g>
<g>
</g>
<g>
</g>
<g>
</g>
<g>
</g>
<g>
</g>
</svg>
