<?xml version="1.0" encoding="utf-8"?>
<!-- Generator: Adobe Illustrator 16.0.0, SVG Export Plug-In . SVG Version: 6.00 Build 0)  -->
<!DOCTYPE svg PUBLIC "-//W3C//DTD SVG 1.1//EN" "http://www.w3.org/Graphics/SVG/1.1/DTD/svg11.dtd">
<svg version="1.1" id="Layer_1" xmlns="http://www.w3.org/2000/svg" xmlns:xlink="http://www.w3.org/1999/xlink" x="0px" y="0px"
	 width="118.309px" height="29px" viewBox="135.525 566.82 118.309 29" enable-background="new 135.525 566.82 118.309 29"
	 xml:space="preserve">
<rect x="135.525" y="566.82" fill="none" width="118.309" height="29"/>
<g>
	<path fill="#FFFFFF" d="M158.446,576.997h4.221c1.005,0,1.91,0.302,2.412,0.805c0.402,0.401,0.603,0.904,0.603,1.507l0,0
		c0,1.005-0.502,1.608-1.206,2.01c1.105,0.402,1.708,1.005,1.708,2.211l0,0c0,1.708-1.407,2.513-3.417,2.513h-4.321V576.997z
		 M162.265,580.715c0.904,0,1.407-0.301,1.407-1.005l0,0c0-0.603-0.503-0.904-1.307-0.904h-2.01v1.909H162.265z M162.868,584.333
		c0.904,0,1.407-0.301,1.407-1.005l0,0c0-0.603-0.503-1.005-1.508-1.005h-2.311v2.01H162.868z"/>
	<path fill="#FFFFFF" d="M167.692,582.224v-5.227h2.009v5.125c0,1.508,0.704,2.211,2.01,2.211s2.01-0.703,2.01-2.211v-5.226h2.009
		v5.125c0,2.814-1.507,4.12-4.02,4.12C169.199,586.243,167.692,584.937,167.692,582.224z"/>
	<path fill="#FFFFFF" d="M180.253,582.524l-3.518-5.527h2.312l2.211,3.718l2.211-3.718h2.312l-3.518,5.527v3.617h-2.01V582.524z"/>
	<path fill="#FFFFFF" d="M190.905,576.997h1.81l4.321,5.628v-5.628h2.01v9.145h-1.709l-4.421-5.828v5.828h-2.01V576.997z"/>
	<path fill="#FFFFFF" d="M200.754,581.62L200.754,581.62c0-2.612,2.01-4.724,4.824-4.724c2.813,0,4.824,2.111,4.824,4.724l0,0
		c0,2.612-2.01,4.724-4.824,4.724C202.763,586.344,200.754,584.232,200.754,581.62z M208.391,581.62L208.391,581.62
		c0-1.607-1.105-2.914-2.813-2.914c-1.608,0-2.714,1.306-2.714,2.813l0,0c0,1.608,1.106,2.914,2.814,2.914
		C207.386,584.434,208.391,583.128,208.391,581.62z"/>
	<path fill="#FFFFFF" d="M211.004,576.997h2.11l1.91,6.23l2.01-6.23h1.708l2.01,6.23l1.91-6.23h2.11l-3.115,9.246h-1.708
		l-2.111-6.03l-2.11,6.03h-1.709L211.004,576.997z"/>
</g>
</svg>
