<?xml version="1.0" encoding="utf-8"?>
<!-- Generator: Adobe Illustrator 18.1.1, SVG Export Plug-In . SVG Version: 6.00 Build 0)  -->
<svg version="1.1" id="Layer_1" xmlns="http://www.w3.org/2000/svg" xmlns:xlink="http://www.w3.org/1999/xlink" x="0px" y="0px"
	 viewBox="0 0 300 600" enable-background="new 0 0 300 600" xml:space="preserve">
<g transform="matrix( 1, 0, 0, 1, 0,0) ">
	<g>
		<g id="Layer0_0_FILL">
			<path fill="#FFFFFF" d="M205.8,539.9c0-0.1,0-0.2-0.1-0.3c0-0.1-0.1-0.2-0.2-0.3c-0.1-0.1-0.2-0.1-0.3-0.2
				c-0.1,0-0.2-0.1-0.3-0.1c-0.2,0-0.3,0-0.4,0.1c-0.1,0-0.2,0.1-0.3,0.2c-0.1,0.1-0.1,0.2-0.2,0.3c0,0.1-0.1,0.3-0.1,0.4
				c0,0.1,0,0.2,0.1,0.3c0,0.2,0.1,0.3,0.2,0.3c0,0.1,0.1,0.1,0.3,0.2c0.1,0.1,0.2,0.1,0.3,0.1c0.2,0,0.3,0,0.4-0.1
				c0.1,0,0.2-0.1,0.3-0.2c0.1-0.1,0.1-0.2,0.2-0.3C205.8,540.2,205.8,540.1,205.8,539.9L205.8,539.9 M205.2,539.2
				c0.1,0,0.2,0.1,0.3,0.2c0.1,0.1,0.1,0.2,0.2,0.3c0,0.1,0.1,0.2,0.1,0.3v0.1c0,0.1,0,0.2-0.1,0.3c0,0.1-0.1,0.2-0.2,0.3
				c-0.1,0.1-0.2,0.1-0.3,0.2c-0.1,0-0.2,0.1-0.4,0.1c-0.1,0-0.2,0-0.3-0.1c-0.1,0-0.2-0.1-0.3-0.2c-0.1-0.1-0.1-0.2-0.2-0.3
				c0-0.1-0.1-0.2-0.1-0.3s0-0.3,0.1-0.4c0-0.1,0.1-0.2,0.2-0.3c0.1-0.1,0.2-0.1,0.3-0.2c0.1,0,0.3-0.1,0.4-0.1
				S205.1,539.1,205.2,539.2 M205.3,539.8L205.3,539.8l-0.1-0.2l-0.1-0.1l-0.2-0.1h-0.4v1h0.1V540h0.3l0.3,0.4h0.2l-0.3-0.4
				c0.1,0,0.1-0.1,0.2-0.1S205.3,539.8,205.3,539.8 M204.9,539.6c0.1,0,0.1,0,0.2,0l0.1,0.1c0,0.1,0,0.1-0.1,0.1
				c0,0-0.1,0.1-0.2,0.1h-0.3v-0.3L204.9,539.6 M110.6,531.2c-0.3-0.3-0.7-0.4-1.1-0.4c-0.5,0-0.8,0.1-1.1,0.4
				c-0.3,0.3-0.5,0.7-0.5,1.1c0,0.4,0.2,0.8,0.5,1.1c0.3,0.3,0.6,0.4,1.1,0.4c0.4,0,0.8-0.1,1.1-0.4c0.3-0.3,0.5-0.7,0.5-1.1
				S111,531.5,110.6,531.2 M106.1,528.8c0.3-0.3,0.4-0.7,0.4-1.1c0-0.4-0.1-0.8-0.4-1.1c-0.3-0.3-0.7-0.4-1.1-0.4s-0.8,0.1-1.1,0.4
				c-0.3,0.3-0.5,0.7-0.5,1.1c0,0.4,0.2,0.8,0.5,1.1c0.3,0.3,0.7,0.4,1.1,0.4C105.4,529.3,105.7,529.1,106.1,528.8 M108.5,526.6
				c-0.3,0.3-0.5,0.7-0.5,1.1c0,0.4,0.2,0.8,0.5,1.1c0.3,0.3,0.7,0.4,1.1,0.4c0.4,0,0.8-0.1,1.1-0.4c0.3-0.3,0.5-0.7,0.5-1.1
				c0-0.5-0.2-0.8-0.5-1.1c-0.3-0.3-0.7-0.4-1.1-0.4C109.2,526.2,108.8,526.3,108.5,526.6 M110.6,522c-0.3-0.3-0.7-0.4-1.1-0.4
				c-0.4,0-0.8,0.1-1.1,0.4c-0.3,0.3-0.5,0.7-0.5,1.1c0,0.4,0.2,0.8,0.5,1.1c0.3,0.3,0.6,0.4,1.1,0.4c0.4,0,0.8-0.1,1.1-0.4
				c0.3-0.3,0.5-0.7,0.5-1.1S111,522.3,110.6,522 M112.6,527.8c0,0.4,0.1,0.8,0.4,1.1s0.7,0.4,1.1,0.4c0.4,0,0.8-0.1,1.1-0.4
				c0.3-0.3,0.5-0.7,0.5-1.1s-0.2-0.8-0.5-1.1c-0.3-0.3-0.7-0.4-1.1-0.4c-0.4,0-0.8,0.1-1.1,0.4C112.7,527,112.6,527.3,112.6,527.8
				 M98.8,527.8c0,0.4,0.1,0.8,0.4,1.1c0.3,0.3,0.7,0.4,1.1,0.4s0.8-0.1,1.1-0.4c0.3-0.3,0.4-0.7,0.4-1.1s-0.1-0.8-0.4-1.1
				c-0.3-0.3-0.7-0.4-1.1-0.4s-0.8,0.1-1.1,0.4C99,527,98.8,527.3,98.8,527.8 M94.6,528.8c0.3,0.3,0.7,0.4,1.1,0.4
				c0.5,0,0.8-0.1,1.1-0.4c0.3-0.3,0.4-0.7,0.4-1.1c0-0.5-0.1-0.8-0.4-1.1c-0.3-0.3-0.7-0.4-1.1-0.4c-0.4,0-0.8,0.1-1.1,0.4
				c-0.3,0.3-0.4,0.7-0.4,1.1C94.2,528.2,94.3,528.5,94.6,528.8 M180.5,532.2c0-2.4-0.9-4.5-2.6-6.2s-3.7-2.5-6.2-2.5
				c-1.3,0-2.6,0.3-3.8,0.9c-1.2,0.5-2.2,1.3-3,2.3V515c0-0.3-0.1-0.5-0.3-0.7c-0.2-0.2-0.4-0.3-0.7-0.3s-0.5,0.1-0.7,0.3
				s-0.3,0.4-0.3,0.7v17.8c0,0,0,0.1,0.1,0.2c0.2,2.2,1.1,4.1,2.8,5.7c1.6,1.5,3.6,2.3,5.9,2.3c2.4,0,4.5-0.8,6.2-2.5
				C179.6,536.7,180.5,534.6,180.5,532.2 M178.5,532.2c0,1.9-0.7,3.5-2,4.8s-3,2-4.9,2c-1.9,0-3.5-0.7-4.8-2s-2-2.9-2-4.8
				c0-1.9,0.7-3.5,2-4.8s2.9-2,4.8-2c1.9,0,3.5,0.7,4.9,2C177.9,528.7,178.5,530.3,178.5,532.2 M187,524.5c0-0.3-0.1-0.5-0.3-0.7
				s-0.4-0.3-0.7-0.3c-0.3,0-0.5,0.1-0.6,0.3c-0.2,0.2-0.3,0.4-0.3,0.7v15.4c0,0.3,0.1,0.5,0.3,0.7s0.4,0.3,0.6,0.3
				c0.3,0,0.5-0.1,0.7-0.3s0.3-0.4,0.3-0.7V524.5 M142.2,524.5c0-0.3-0.1-0.5-0.3-0.7s-0.4-0.3-0.7-0.3c-0.3,0-0.5,0.1-0.7,0.3
				s-0.3,0.4-0.3,0.7v15.4c0,0.3,0.1,0.5,0.3,0.7c0.2,0.2,0.4,0.3,0.7,0.3c0.3,0,0.5-0.1,0.7-0.3s0.3-0.4,0.3-0.7V524.5 M196.5,515
				c0-0.3-0.1-0.5-0.3-0.7s-0.4-0.3-0.7-0.3c-0.3,0-0.5,0.1-0.6,0.3c-0.2,0.2-0.3,0.4-0.3,0.7v8.6h-2c-0.3,0-0.5,0.1-0.7,0.3
				s-0.3,0.4-0.3,0.7s0.1,0.5,0.3,0.7s0.4,0.3,0.7,0.3h2v8.3c0,1.5,0.1,2.7,0.4,3.5c0.3,1,0.8,1.7,1.4,2.3c0.6,0.5,1.4,0.8,2.3,1
				c0.7,0.1,1.6,0.2,2.9,0.3c0.3,0,0.5-0.1,0.7-0.3s0.3-0.4,0.3-0.7s-0.1-0.5-0.3-0.6c-0.2-0.2-0.4-0.3-0.7-0.3
				c-1.1,0-1.9-0.1-2.5-0.2c-0.6-0.1-1.1-0.3-1.5-0.6c-0.7-0.6-1.1-2.1-1.1-4.4v-8.3h5.1c0.3,0,0.5-0.1,0.7-0.3s0.3-0.4,0.3-0.7
				s-0.1-0.5-0.3-0.7s-0.4-0.3-0.7-0.3h-5.1V515 M151.8,514.3c-0.2-0.2-0.4-0.3-0.7-0.3s-0.5,0.1-0.7,0.3s-0.3,0.4-0.3,0.7v8.6h-2
				c-0.3,0-0.5,0.1-0.6,0.3c-0.2,0.2-0.3,0.4-0.3,0.7s0.1,0.5,0.3,0.7c0.2,0.2,0.4,0.3,0.6,0.3h2v8.3c0,1.6,0.2,2.8,0.6,3.9
				c0.3,1,0.9,1.8,1.6,2.3c0.6,0.4,1.4,0.7,2.3,0.9c0.5,0.1,1.3,0.1,2.5,0.1c0.3,0,0.5-0.1,0.7-0.3s0.3-0.4,0.3-0.7
				s-0.1-0.5-0.3-0.6c-0.2-0.2-0.4-0.3-0.7-0.3c-0.9,0-1.6,0-2.1-0.1c-0.7-0.1-1.2-0.3-1.5-0.5c-0.5-0.3-0.8-0.8-1-1.4
				c-0.3-0.8-0.4-1.9-0.4-3.2l-0.1-8.3h5.1c0.3,0,0.5-0.1,0.7-0.3s0.3-0.4,0.3-0.7s-0.1-0.5-0.3-0.7c-0.2-0.2-0.4-0.3-0.7-0.3H152
				l0.1-8.6C152.1,514.7,152,514.5,151.8,514.3 M129.8,518c0.3-0.6,0.6-1.1,1.1-1.4c0.4-0.3,0.9-0.4,1.6-0.5
				c0.5-0.1,1.1-0.1,1.9-0.1c0.3,0,0.5-0.1,0.7-0.3s0.3-0.4,0.3-0.7s-0.1-0.5-0.3-0.7s-0.4-0.3-0.7-0.3c-1,0-1.7,0-2.1,0.1
				c-0.9,0.1-1.7,0.4-2.3,0.8c-0.8,0.5-1.4,1.3-1.9,2.3c-0.4,1.1-0.6,2.3-0.6,3.9v2.5h-2c-0.3,0-0.5,0.1-0.7,0.3
				c-0.2,0.2-0.3,0.4-0.3,0.7s0.1,0.5,0.3,0.7c0.2,0.2,0.4,0.3,0.7,0.3h2v14.5c0,0.3,0.1,0.5,0.3,0.7c0.2,0.2,0.4,0.3,0.7,0.3
				c0.3,0,0.5-0.1,0.7-0.3c0.2-0.2,0.3-0.4,0.3-0.7v-14.5h5.1c0.3,0,0.5-0.1,0.7-0.3s0.3-0.4,0.3-0.7s-0.1-0.5-0.3-0.7
				c-0.2-0.2-0.4-0.3-0.7-0.3h-5.1v-2.5C129.3,519.8,129.5,518.7,129.8,518z"/>
			<path fill="#38BEBF" d="M103.9,535.8c-0.3,0.3-0.5,0.7-0.5,1.1c0,0.5,0.2,0.8,0.5,1.1c0.3,0.3,0.7,0.4,1.1,0.4s0.8-0.1,1.1-0.4
				c0.3-0.3,0.4-0.7,0.4-1.1c0-0.4-0.1-0.8-0.4-1.1s-0.7-0.4-1.1-0.4C104.5,535.4,104.2,535.5,103.9,535.8 M103.9,531.2
				c-0.3,0.3-0.5,0.7-0.5,1.1c0,0.4,0.2,0.8,0.5,1.1c0.3,0.3,0.7,0.4,1.1,0.4s0.8-0.1,1.1-0.4c0.3-0.3,0.4-0.7,0.4-1.1
				c0-0.5-0.1-0.8-0.4-1.1s-0.7-0.4-1.1-0.4C104.5,530.8,104.2,530.9,103.9,531.2 M106.5,523.2c0-0.4-0.1-0.8-0.4-1.1
				c-0.3-0.3-0.7-0.5-1.1-0.5c-0.4,0-0.8,0.1-1.1,0.4c-0.3,0.3-0.5,0.7-0.5,1.1c0,0.4,0.1,0.8,0.4,1.1s0.7,0.4,1.1,0.4
				c0.4,0,0.8-0.1,1.1-0.4C106.3,524,106.5,523.6,106.5,523.2 M98.8,532.4c0,0.4,0.1,0.8,0.4,1.1c0.3,0.3,0.7,0.4,1.1,0.4
				s0.8-0.1,1.1-0.4c0.3-0.3,0.4-0.7,0.4-1.1c0-0.5-0.1-0.8-0.4-1.1c-0.3-0.3-0.7-0.4-1.1-0.4s-0.8,0.1-1.1,0.4
				C99,531.5,98.8,531.9,98.8,532.4 M98.8,523.1c0,0.4,0.1,0.8,0.4,1.1c0.3,0.3,0.7,0.4,1.1,0.4s0.8-0.1,1.1-0.4
				c0.3-0.3,0.4-0.7,0.4-1.1c0-0.4-0.1-0.8-0.4-1.1c-0.3-0.3-0.7-0.4-1.1-0.4s-0.8,0.1-1.1,0.4C99,522.3,98.8,522.7,98.8,523.1
				 M103.4,518.5c0,0.4,0.2,0.8,0.5,1.1c0.3,0.3,0.7,0.5,1.1,0.5s0.8-0.2,1.1-0.5c0.3-0.3,0.4-0.7,0.4-1.1c0-0.4-0.1-0.8-0.4-1.1
				s-0.7-0.4-1.1-0.4c-0.4,0-0.8,0.1-1.1,0.4C103.5,517.7,103.4,518.1,103.4,518.5 M184.7,519.7c0.4,0.4,0.8,0.6,1.3,0.6
				s1-0.2,1.4-0.6c0.4-0.4,0.6-0.8,0.6-1.3s-0.2-1-0.6-1.4c-0.4-0.4-0.8-0.6-1.4-0.6c-0.5,0-0.9,0.2-1.3,0.6
				c-0.4,0.4-0.6,0.8-0.6,1.4C184.1,518.9,184.3,519.3,184.7,519.7 M139.3,518.3c0,0.5,0.2,0.9,0.6,1.3c0.4,0.4,0.8,0.6,1.4,0.6
				c0.5,0,0.9-0.2,1.3-0.6c0.4-0.4,0.6-0.8,0.6-1.3s-0.2-1-0.6-1.4c-0.4-0.4-0.8-0.6-1.3-0.6s-1,0.2-1.4,0.6
				C139.5,517.3,139.3,517.8,139.3,518.3z"/>
		</g>
	</g>
</g>
<g>
</g>
<g>
</g>
<g>
</g>
<g>
</g>
<g>
</g>
<g>
</g>
<g>
</g>
<g>
</g>
<g>
</g>
<g>
</g>
<g>
</g>
<g>
</g>
<g>
</g>
<g>
</g>
<g>
</g>
</svg>
